<svg width="500" height="486" viewBox="0 0 500 486" fill="none" xmlns="http://www.w3.org/2000/svg">
<path fill-rule="evenodd" clip-rule="evenodd" d="M415.905 259.084C465.197 239.284 500 191.039 500 134.667C500 60.6451 439.994 0.638855 365.972 0.638855C314.456 0.638855 269.728 29.7042 247.292 72.3309C234.671 69.9435 221.648 68.6944 208.333 68.6944C93.274 68.6944 0 161.968 0 277.028C0 392.087 93.274 485.361 208.333 485.361C323.393 485.361 416.667 392.087 416.667 277.028C416.667 270.983 416.409 264.998 415.905 259.084ZM247.292 72.3309C338.002 89.4901 407.917 165.453 415.905 259.084C400.473 265.283 383.621 268.694 365.972 268.694C291.951 268.694 231.944 208.688 231.944 134.667C231.944 112.162 237.491 90.9523 247.292 72.3309Z" fill="#8BC858"/>
</svg>
